<?xml version="1.0" encoding="UTF-8" standalone="no"?>
<svg
   width="150"
   height="150"
   viewBox="0 0 150 150"
   version="1.1"
   id="svg2"
   sodipodi:docname="pm.svg"
   inkscape:version="1.4 (86a8ad7, 2024-10-11)"
   inkscape:export-filename="kleenestar.png"
   inkscape:export-xdpi="96"
   inkscape:export-ydpi="96"
   xml:space="preserve"
   xmlns:inkscape="http://www.inkscape.org/namespaces/inkscape"
   xmlns:sodipodi="http://sodipodi.sourceforge.net/DTD/sodipodi-0.dtd"
   xmlns="http://www.w3.org/2000/svg"
   xmlns:svg="http://www.w3.org/2000/svg"><defs
     id="defs2" /><sodipodi:namedview
     id="namedview2"
     pagecolor="#ffffff"
     bordercolor="#000000"
     borderopacity="0.25"
     inkscape:showpageshadow="2"
     inkscape:pageopacity="0.0"
     inkscape:pagecheckerboard="0"
     inkscape:deskcolor="#d1d1d1"
     inkscape:zoom="2.8284271"
     inkscape:cx="-16.970563"
     inkscape:cy="127.80955"
     inkscape:window-width="1920"
     inkscape:window-height="1137"
     inkscape:window-x="-8"
     inkscape:window-y="-8"
     inkscape:window-maximized="1"
     inkscape:current-layer="svg2"
     showgrid="true"><inkscape:grid
       id="grid1"
       units="px"
       originx="12"
       originy="12"
       spacingx="1"
       spacingy="1"
       empcolor="#0099e5"
       empopacity="0.30196078"
       color="#0099e5"
       opacity="0.14901961"
       empspacing="1"
       enabled="true"
       visible="true"
       dotted="false" /></sodipodi:namedview><rect
     style="fill:#84bc78;stroke-width:0;fill-opacity:1;stroke:none"
     id="rect5"
     width="150"
     height="150"
     x="0"
     y="0"
     inkscape:label="background" /><path
     id="path4"
     class="st2"
     d="m 70.908297,20.398957 a 54.758295,54.758295 0 0 0 -50.666645,54.604228 54.758349,54.758349 0 0 0 109.516698,0 54.758295,54.758295 0 0 0 -58.850053,-54.604228 z m 0.423204,10.329278 a 44.426838,44.426838 0 0 1 48.095239,44.27495 44.426838,44.426838 0 1 1 -88.853516,0 44.426838,44.426838 0 0 1 40.758277,-44.27495 z m 26.789215,14.55208 a 2.3740684,3.0995235 40 0 0 -1.121251,0.308384 L 62.519061,62.515571 a 2.3740684,3.0995235 40 0 0 -1.994098,2.370144 L 49.848372,101.78457 a 2.3740684,3.0995235 40 0 0 3.147548,2.64499 L 87.476326,87.503863 a 2.3740684,3.0995235 40 0 0 1.994096,-2.379325 L 100.14701,48.234858 A 2.3740684,3.0995235 40 0 0 98.120736,45.280491 Z M 76.010835,67.326952 a 7.7488127,7.7488127 0 0 1 3.968661,1.743429 7.7488127,7.7488127 0 0 1 2.77036,5.935099 7.7488127,7.7488127 0 0 1 -12.732796,5.935157 7.7488127,7.7488127 0 0 1 -2.763445,-5.935157 7.7488127,7.7488127 0 0 1 8.75722,-7.678528 z"
     inkscape:label="compass"
     style="fill:#ffffff;fill-opacity:1;stroke:none;stroke-width:0.188416;stroke-linecap:round;stroke-linejoin:round" /></svg>
